<?xml version="1.0" encoding="UTF-8"?>
<svg width="145px" height="19px" viewBox="0 0 145 19" version="1.1" xmlns="http://www.w3.org/2000/svg" xmlns:xlink="http://www.w3.org/1999/xlink">
    <!-- Generator: Sketch 56.3 (81716) - https://sketch.com -->
    <title>logo</title>
    <desc>Created with Sketch.</desc>
    <defs>
        <linearGradient x1="27.1193772%" y1="3138.98%" x2="71.8263339%" y2="-2896.64658%" id="linearGradient-1">
            <stop stop-color="#6250E5" offset="0%"></stop>
            <stop stop-color="#2EB2FF" offset="100%"></stop>
        </linearGradient>
        <linearGradient x1="7.77156117e-14%" y1="100%" x2="97.6961097%" y2="2.30389031%" id="linearGradient-2">
            <stop stop-color="#6250E5" offset="0%"></stop>
            <stop stop-color="#2EB2FF" offset="100%"></stop>
        </linearGradient>
        <linearGradient x1="27.1193772%" y1="3138.98%" x2="72.8806228%" y2="-3038.98%" id="linearGradient-3">
            <stop stop-color="#27DE7C" offset="0%"></stop>
            <stop stop-color="#ADFF83" offset="100%"></stop>
        </linearGradient>
        <linearGradient x1="7.21644966e-14%" y1="100%" x2="100%" y2="0%" id="linearGradient-4">
            <stop stop-color="#27DE7C" offset="0%"></stop>
            <stop stop-color="#ADFF83" offset="100%"></stop>
        </linearGradient>
        <linearGradient x1="7.68%" y1="-1911.18148%" x2="91.2893272%" y2="2021.22577%" id="linearGradient-5">
            <stop stop-color="#202756" stop-opacity="0.7" offset="0%"></stop>
            <stop stop-color="#2D3856" stop-opacity="0.994217223" offset="21.3957292%"></stop>
            <stop stop-color="#2D3956" offset="48.3924387%"></stop>
            <stop stop-color="#191C32" stop-opacity="0.7" offset="100%"></stop>
        </linearGradient>
        <linearGradient x1="8.8817842e-14%" y1="18.255193%" x2="98.7822864%" y2="81.9073896%" id="linearGradient-6">
            <stop stop-color="#202756" stop-opacity="0.7" offset="0%"></stop>
            <stop stop-color="#2D3856" stop-opacity="0.994217223" offset="21.3957292%"></stop>
            <stop stop-color="#2D3956" offset="48.3924387%"></stop>
            <stop stop-color="#191C32" stop-opacity="0.7" offset="100%"></stop>
        </linearGradient>
        <linearGradient x1="27.1193772%" y1="3138.98%" x2="72.8806228%" y2="-3038.98%" id="linearGradient-7">
            <stop stop-color="#6250E5" offset="0%"></stop>
            <stop stop-color="#2EB2FF" offset="100%"></stop>
        </linearGradient>
        <linearGradient x1="2.77555756e-14%" y1="100%" x2="100%" y2="0%" id="linearGradient-8">
            <stop stop-color="#6250E5" offset="0%"></stop>
            <stop stop-color="#2EB2FF" offset="100%"></stop>
        </linearGradient>
        <linearGradient x1="27.1193772%" y1="3138.98%" x2="72.6371149%" y2="-3006.10541%" id="linearGradient-9">
            <stop stop-color="#27DE7C" offset="0%"></stop>
            <stop stop-color="#ADFF83" offset="100%"></stop>
        </linearGradient>
        <linearGradient x1="3.33066907e-14%" y1="100%" x2="99.4678731%" y2="0.532126913%" id="linearGradient-10">
            <stop stop-color="#27DE7C" offset="0%"></stop>
            <stop stop-color="#ADFF83" offset="100%"></stop>
        </linearGradient>
    </defs>
    <g id="Page-1" stroke="none" stroke-width="1" fill="none" fill-rule="evenodd">
        <g id="logo" fill-rule="nonzero">
            <g id="logoDark" transform="translate(15.110654, 8.784510) rotate(90.000000) translate(-15.110654, -8.784510) translate(6.462177, -6.120313)">
                <g id="right" transform="translate(0.148154, 0.000000)">
                    <g id="up" transform="translate(0.071438, 0.000000)" fill="url(#linearGradient-2)">
                        <path d="M0.365145355,12.2612247 L8.1161854,6.85025771 C8.20747173,6.80606252 8.32365434,6.76186729 8.40664193,6.76186729 L8.40664193,0.0707123377 C8.28216053,0.0618732956 8.09128912,0.150263718 8.07469159,0.150263718 L0.365145355,5.57006978 C0.207468952,5.62310401 0.0331950322,5.78220677 0.0331950322,6.01202187 L0.0331950322,11.9076631 C0.0331950322,12.102122 0.182572677,12.2612247 0.365145355,12.2612247 Z" id="Shape"></path>
                    </g>
                    <g id="down" transform="translate(12.604563, 6.256345) scale(-1, 1) translate(-12.604563, -6.256345) translate(8.372330, 0.000000)" fill="url(#linearGradient-4)">
                        <path d="M0.331950322,12.26225 L8.08299037,6.85128301 C8.1742767,6.80708782 8.29045931,6.76289259 8.3734469,6.76289259 L8.3734469,0.071737643 C8.2489655,0.0628986009 8.05809409,0.151289023 8.04149656,0.151289023 L0.331950322,5.57109509 C0.174273919,5.62412932 -5.32907052e-15,5.78323211 -5.32907052e-15,6.01304718 L-5.32907052e-15,11.9086884 C-5.32907052e-15,12.1031473 0.149377645,12.26225 0.331950322,12.26225 Z" id="Shape"></path>
                    </g>
                </g>
                <g id="back" opacity="0.699999988" transform="translate(0.219592, 5.517035)" fill="url(#linearGradient-6)">
                    <path d="M16.5809186,18.2261051 L0.356846596,6.95632624 C0.174273919,6.85909678 0.0248962742,6.70883306 0.0248962742,6.51437411 L0.0248962742,0.55685966 C0.0248962742,0.274010309 0.157676403,0.15910276 0.348547839,0.0618732956 L16.4481385,11.4553987 C16.6058149,11.508433 16.7800888,11.6675357 16.7800888,11.8973508 L16.77179,17.8548653 C16.7468938,18.0493242 16.6888025,18.1377147 16.5809186,18.2261051 Z" id="Shape"></path>
                </g>
                <g id="left" transform="translate(8.679750, 23.252061) rotate(-180.000000) translate(-8.679750, -23.252061) translate(0.215283, 16.995715)">
                    <g id="pink" transform="translate(0.071438, 0.000000)" fill="url(#linearGradient-8)">
                        <path d="M0.365145355,12.2612247 L8.1161854,6.85025771 C8.20747173,6.80606252 8.32365434,6.76186729 8.40664193,6.76186729 L8.40664193,0.0707123377 C8.28216053,0.0618732956 8.09128912,0.150263718 8.07469159,0.150263718 L0.365145355,5.57006978 C0.207468952,5.62310401 0.0331950322,5.78220677 0.0331950322,6.01202187 L0.0331950322,11.9076631 C0.0331950322,12.102122 0.182572677,12.2612247 0.365145355,12.2612247 Z" id="Shape"></path>
                    </g>
                    <g id="yellow" transform="translate(12.604563, 6.256345) scale(-1, 1) translate(-12.604563, -6.256345) translate(8.372330, 0.000000)" fill="url(#linearGradient-10)">
                        <path d="M0.331950322,12.26225 L8.08299037,6.85128301 C8.1742767,6.80708782 8.29045931,6.76289259 8.3734469,6.76289259 L8.3734469,0.071737643 C8.2489655,0.0628986009 8.05809409,0.151289023 8.04149656,0.151289023 L0.331950322,5.57109509 C0.174273919,5.62412932 1.1812773e-12,5.78323211 1.1812773e-12,6.01304718 L1.1812773e-12,11.9086884 C1.1812773e-12,12.1031473 0.149377645,12.26225 0.331950322,12.26225 Z" id="Shape"></path>
                    </g>
                </g>
            </g>
            <path d="M42.597863,6.08526288 C43.2266827,4.81452296 44.2353995,4.17916251 45.6240432,4.17916251 C46.8030801,4.17916251 47.6906196,4.56561886 48.2866885,5.33854313 C48.882757,6.11146743 49.1807868,7.1332842 49.1807868,8.40402412 L49.1807868,13.9847716 L46.8620256,13.9847716 L46.8620256,8.40402412 C46.8620256,7.69660191 46.6917231,7.16276815 46.3511122,6.80250681 C46.0105017,6.44224548 45.5323436,6.26211754 44.9166242,6.26211754 C44.3009049,6.26211754 43.7736213,6.53722206 43.3347574,7.08743936 C42.8958936,7.63765662 42.6633647,8.46297019 42.6371643,9.56340474 L42.6371643,13.9847716 L40.3184026,13.9847716 L40.3184026,4.43461924 L42.3424061,4.43461924 L42.597863,6.08526288 Z M55.7047593,8.40402412 C56.4645832,8.40402412 57.3422977,8.52847619 58.3379288,8.777384 L58.3379288,7.83415907 C58.3379288,7.16603808 58.2036518,6.67150495 57.9350934,6.35054487 C57.666535,6.02958479 57.2276777,5.86910715 56.6185085,5.86910715 C56.0093392,5.86910715 55.5410065,5.99028416 55.2134964,6.23264176 C54.8859859,6.47499936 54.7222334,6.81888004 54.7222334,7.26429402 L52.1873165,7.26429402 C52.1873165,6.17695985 52.5704978,5.39094694 53.3368718,4.9062317 C54.1032457,4.4215165 55.1741885,4.17916251 56.5497317,4.17916251 C58.5147934,4.17916251 59.7855142,4.86692379 60.3619322,6.24246702 C60.5584385,6.71408184 60.65669,7.27084099 60.65669,7.91276114 L60.65669,13.9847716 L58.6326865,13.9847716 L58.4558322,12.7074878 C57.8401128,13.7424203 56.896897,14.2598789 55.6261572,14.2598789 C54.3947185,14.2598789 53.4384027,13.9585739 52.7571816,13.355955 C52.1283615,12.7795368 51.8139566,12.0491998 51.8139566,11.1649221 C51.8139566,10.2806443 52.1611124,9.59943309 52.8554342,9.1212681 C53.5497557,8.64310307 54.4995215,8.40402412 55.7047593,8.40402412 Z M58.3379288,10.2511729 C57.5650048,10.0415664 56.8444928,9.93676462 56.1763718,9.93676462 C54.9187323,9.93676462 54.2899218,10.3559715 54.2899218,11.1943979 C54.2899218,11.548109 54.4340242,11.852689 54.7222334,12.108147 C55.0104423,12.363605 55.4722249,12.4913321 56.1075951,12.4913321 C56.7429648,12.4913321 57.2669735,12.2784536 57.6796365,11.8526902 C58.0922995,11.4269269 58.3117279,10.8930931 58.3379288,10.2511729 Z M72.5256039,6.24246702 C73.1413232,4.86692379 74.2220907,4.17916251 75.7679393,4.17916251 C76.907675,4.17916251 77.7919399,4.56561886 78.4207596,5.33854313 C79.0233785,6.07216618 79.3246834,7.09398298 79.3246834,8.40402412 L79.3246834,13.9847716 L76.9862717,13.9847716 L76.9862717,8.40402412 C76.9862717,7.69660191 76.8159688,7.16276815 76.4753583,6.80250681 C76.1347474,6.44224548 75.6565896,6.26211754 75.0408703,6.26211754 C74.425151,6.26211754 73.9207924,6.53067197 73.5277802,7.06778884 C73.134768,7.60490572 72.9251643,8.41711902 72.8989635,9.50445319 L72.8989635,13.9847716 L70.5802022,13.9847716 L70.5802022,8.40402412 C70.5802022,7.69660191 70.4098997,7.16276815 70.0692888,6.80250681 C69.7286783,6.44224548 69.2505202,6.26211754 68.6348009,6.26211754 C68.0190816,6.26211754 67.4917979,6.53722206 67.052934,7.08743936 C66.6140702,7.63765662 66.3815417,8.46297019 66.3553409,9.56340474 L66.3553409,13.9847716 L64.0365793,13.9847716 L64.0365793,4.43461924 L66.0605828,4.43461924 L66.3160396,6.08526288 C66.9448594,4.81452296 67.9535762,4.17916251 69.3422198,4.17916251 C70.1413446,4.17916251 70.8061807,4.3625655 71.3367474,4.72937704 C71.8673138,5.09618859 72.2635955,5.60054683 72.5256039,6.24246702 Z M90.0833426,7.02848777 C90.2470976,7.57870506 90.328974,8.08306335 90.328974,8.54157775 C90.328974,9.00009218 90.3027736,9.41274894 90.2503719,9.77956048 L84.0801089,9.77956048 C84.1063097,10.5524847 84.296263,11.1812951 84.649974,11.6660103 C85.0036853,12.1507255 85.540794,12.3930795 86.2613166,12.3930795 C87.2176468,12.3930795 87.787506,11.9738726 87.9709119,11.1354463 L90.3093236,11.1354463 C90.1521186,12.0917763 89.7132613,12.8450387 88.9927387,13.395256 C88.2460152,13.9716741 87.3355502,14.2598789 86.2613166,14.2598789 C85.0036772,14.2598789 83.9491098,13.8013713 83.097583,12.8843425 C82.2198553,11.9280124 81.7809984,10.7031424 81.7809984,9.20969543 C81.7809984,7.67694727 82.2198553,6.44552705 83.097583,5.51539783 C83.9360094,4.62456983 84.9905768,4.17916251 86.2613166,4.17916251 C87.5844582,4.17916251 88.6128251,4.64422013 89.3464481,5.57434938 C89.6739586,5.99356252 89.9195875,6.47827051 90.0833426,7.02848777 Z M86.2809671,6.02631133 C85.6259465,6.02631133 85.1150383,6.2391898 84.7482265,6.66495319 C84.3814152,7.09071654 84.1652614,7.63765054 84.0997597,8.30577153 L88.1674171,8.30577153 C88.1674171,7.270839 87.8399118,6.57652763 87.1848912,6.2228165 C86.9359832,6.09181239 86.6346784,6.02631133 86.2809671,6.02631133 Z M94.3966314,11.0764947 C94.4228323,11.9804231 95.0843933,12.4323806 96.381334,12.4323806 C96.8791496,12.4323806 97.2885313,12.3243038 97.6094914,12.108147 C97.9304515,11.8919902 98.0909293,11.6398111 98.0909293,11.351602 C98.0909293,11.0633929 97.9926774,10.8406893 97.7961715,10.6834844 C97.5996652,10.5262794 97.29181,10.3821771 96.872597,10.2511729 L94.7896418,9.50445319 C93.2437935,8.96733632 92.4708805,8.08962191 92.4708805,6.87128363 C92.4708805,6.0590581 92.8344117,5.40732241 93.5614844,4.91605696 C94.2885575,4.42479155 95.2645234,4.17916251 96.489412,4.17916251 C97.7143003,4.17916251 98.6575157,4.4477169 99.3190866,4.98483381 C99.9806572,5.52195069 100.324538,6.19661177 100.350739,7.00883725 L98.1695314,7.00883725 C98.1433306,6.69442738 97.9926778,6.44552329 97.7175694,6.26211754 C97.4424606,6.07871179 97.0494543,5.98701025 96.5385383,5.98701025 C96.027622,5.98701025 95.6313407,6.08853694 95.3496818,6.29159332 C95.068023,6.4946497 94.9271956,6.72717851 94.9271956,6.98918673 C94.9271956,7.44770117 95.3136519,7.78830676 96.0865763,8.01101373 L98.3463858,8.85598607 C99.0931093,9.10489388 99.6662439,9.42257412 100.065806,9.80903625 C100.465369,10.1954984 100.665147,10.6965816 100.665147,11.312301 C100.665147,12.0983257 100.291791,12.7795368 99.5450677,13.355955 C98.7721433,13.9585739 97.7503265,14.2598789 96.4795866,14.2598789 C95.2088467,14.2598789 94.1870299,13.9814993 93.4141055,13.4247318 C92.6411812,12.8679643 92.2481749,12.0852264 92.2350745,11.0764947 L94.3966314,11.0764947 Z M105.577777,5.73155352 C106.180396,4.69662099 107.097411,4.17916251 108.32885,4.17916251 C109.507887,4.17916251 110.516603,4.62456983 111.35503,5.51539783 C112.245858,6.45862746 112.691265,7.69004766 112.691265,9.20969543 C112.691265,10.7424436 112.239308,11.9804139 111.335379,12.9236435 C110.496953,13.8144715 109.494786,14.2598789 108.32885,14.2598789 C107.162913,14.2598789 106.311399,13.9127231 105.774282,13.2184013 L105.774282,18.6419446 L103.455521,18.6419446 L103.455521,4.43461924 L105.361621,4.43461924 L105.577777,5.73155352 Z M107.916189,12.1572733 C108.191297,12.1572733 108.476227,12.0983223 108.770986,11.9804186 C109.065746,11.8625149 109.331025,11.6791119 109.566832,11.4302041 C110.090849,10.8799868 110.352853,10.1430997 110.352853,9.21952068 C110.352853,8.29594164 110.126874,7.57215478 109.67491,7.04813832 C109.222946,6.52412183 108.672737,6.26211754 108.024267,6.26211754 C107.375796,6.26211754 106.845238,6.44879562 106.432575,6.82215733 C106.019912,7.19551908 105.800483,7.72935285 105.774282,8.42367464 L105.774282,10.1332698 C105.774282,10.7489891 105.990436,11.2467973 106.422749,11.6267093 C106.828862,11.9804204 107.32667,12.1572733 107.916189,12.1572733 Z M118.586421,8.40402412 C119.346244,8.40402412 120.223959,8.52847619 121.21959,8.777384 L121.21959,7.83415907 C121.21959,7.16603808 121.085313,6.67150495 120.816755,6.35054487 C120.548196,6.02958479 120.109339,5.86910715 119.50017,5.86910715 C118.891001,5.86910715 118.422668,5.99028416 118.095158,6.23264176 C117.767648,6.47499936 117.603895,6.81888004 117.603895,7.26429402 L115.068978,7.26429402 C115.068978,6.17695985 115.452159,5.39094694 116.218533,4.9062317 C116.984907,4.4215165 118.05585,4.17916251 119.431393,4.17916251 C121.396455,4.17916251 122.667175,4.86692379 123.243594,6.24246702 C123.4401,6.71408184 123.538352,7.27084099 123.538352,7.91276114 L123.538352,13.9847716 L121.514348,13.9847716 L121.337493,12.7074878 C120.721774,13.7424203 119.778559,14.2598789 118.507818,14.2598789 C117.27638,14.2598789 116.320064,13.9585739 115.638843,13.355955 C115.010023,12.7795368 114.695618,12.0491998 114.695618,11.1649221 C114.695618,10.2806443 115.042774,9.59943309 115.737095,9.1212681 C116.431417,8.64310307 117.381183,8.40402412 118.586421,8.40402412 Z M121.21959,10.2511729 C120.446666,10.0415664 119.726154,9.93676462 119.058033,9.93676462 C117.800394,9.93676462 117.171583,10.3559715 117.171583,11.1943979 C117.171583,11.548109 117.315686,11.852689 117.603895,12.108147 C117.892104,12.363605 118.353886,12.4913321 118.989256,12.4913321 C119.624626,12.4913321 120.148635,12.2784536 120.561298,11.8526902 C120.973961,11.4269269 121.19339,10.8930931 121.21959,10.2511729 Z M130.553587,4.17916251 C131.156206,4.17916251 131.69659,4.28068919 132.174755,4.48374557 C132.65292,4.68680195 133.055751,4.95208129 133.383262,5.27959158 C134.038282,5.90841135 134.424739,6.70097436 134.542642,7.65730441 L132.204231,7.71625596 C132.099427,7.29704278 131.906199,6.9498871 131.62454,6.67477845 C131.342881,6.3996698 131.018651,6.26211754 130.651839,6.26211754 C130.285028,6.26211754 129.970623,6.31779345 129.708615,6.42914694 C129.446606,6.54050046 129.217352,6.71407831 129.020847,6.9498857 C128.575432,7.50010299 128.352729,8.25991547 128.352729,9.22934594 C128.352729,10.1987764 128.562332,10.9291134 128.981545,11.4203788 C129.400758,11.9116443 129.908392,12.1572733 130.50446,12.1572733 C131.100529,12.1572733 131.532836,12.016446 131.801395,11.7347871 C132.069953,11.4531283 132.204231,11.069947 132.204231,10.5852317 L134.542642,10.5852317 C134.542642,11.6332647 134.195487,12.504429 133.501165,13.1987508 C132.793742,13.906173 131.804676,14.2598789 130.533936,14.2598789 C129.276297,14.2598789 128.221729,13.8013713 127.370203,12.8843425 C126.466274,11.9018116 126.014317,10.6769415 126.014317,9.20969543 C126.014317,7.66384686 126.466274,6.42587653 127.370203,5.49574731 C128.221729,4.61801973 129.282847,4.17916251 130.553587,4.17916251 Z M144.731436,7.02848777 C144.895191,7.57870506 144.977068,8.08306335 144.977068,8.54157775 C144.977068,9.00009218 144.950867,9.41274894 144.898466,9.77956048 L138.728203,9.77956048 C138.754404,10.5524847 138.944357,11.1812951 139.298068,11.6660103 C139.651779,12.1507255 140.188888,12.3930795 140.909411,12.3930795 C141.86574,12.3930795 142.4356,11.9738726 142.619006,11.1354463 L144.957417,11.1354463 C144.800212,12.0917763 144.361355,12.8450387 143.640833,13.395256 C142.894109,13.9716741 141.983644,14.2598789 140.909411,14.2598789 C139.651771,14.2598789 138.597204,13.8013713 137.745677,12.8843425 C136.867949,11.9280124 136.429092,10.7031424 136.429092,9.20969543 C136.429092,7.67694727 136.867949,6.44552705 137.745677,5.51539783 C138.584103,4.62456983 139.638671,4.17916251 140.909411,4.17916251 C142.232552,4.17916251 143.260919,4.64422013 143.994542,5.57434938 C144.322052,5.99356252 144.567681,6.47827051 144.731436,7.02848777 Z M140.929061,6.02631133 C140.27404,6.02631133 139.763132,6.2391898 139.39632,6.66495319 C139.029509,7.09071654 138.813355,7.63765054 138.747853,8.30577153 L142.815511,8.30577153 C142.815511,7.270839 142.488005,6.57652763 141.832985,6.2228165 C141.584077,6.09181239 141.282772,6.02631133 140.929061,6.02631133 Z" id="namespace" fill="#FFFFFF"></path>
        </g>
    </g>
</svg>