<?xml version="1.0" encoding="UTF-8"?>
<svg width="393px" height="50px" viewBox="0 0 393 50" version="1.1" xmlns="http://www.w3.org/2000/svg" xmlns:xlink="http://www.w3.org/1999/xlink">
    <!-- Generator: Sketch 41.2 (35397) - http://www.bohemiancoding.com/sketch -->
    <title>logo</title>
    <desc>Created with Sketch.</desc>
    <defs>
        <linearGradient x1="0%" y1="100%" x2="97.6961097%" y2="2.30389031%" id="linearGradient-1">
            <stop stop-color="#6250E5" offset="0%"></stop>
            <stop stop-color="#2EB2FF" offset="100%"></stop>
        </linearGradient>
        <linearGradient x1="0%" y1="100%" x2="100%" y2="0%" id="linearGradient-2">
            <stop stop-color="#27DE7C" offset="0%"></stop>
            <stop stop-color="#ADFF83" offset="100%"></stop>
        </linearGradient>
        <linearGradient x1="0%" y1="18.255193%" x2="98.7822864%" y2="81.9073896%" id="linearGradient-3">
            <stop stop-color="#202756" stop-opacity="0.7" offset="0%"></stop>
            <stop stop-color="#2D3856" stop-opacity="0.994217223" offset="21.3957292%"></stop>
            <stop stop-color="#2D3956" offset="48.3924387%"></stop>
            <stop stop-color="#191C32" stop-opacity="0.7" offset="100%"></stop>
        </linearGradient>
        <linearGradient x1="0%" y1="100%" x2="100%" y2="0%" id="linearGradient-4">
            <stop stop-color="#6250E5" offset="0%"></stop>
            <stop stop-color="#2EB2FF" offset="100%"></stop>
        </linearGradient>
        <linearGradient x1="0%" y1="100%" x2="99.4678731%" y2="0.532126913%" id="linearGradient-5">
            <stop stop-color="#27DE7C" offset="0%"></stop>
            <stop stop-color="#ADFF83" offset="100%"></stop>
        </linearGradient>
    </defs>
    <g id="Page-1" stroke="none" stroke-width="1" fill="none" fill-rule="evenodd">
        <g id="namespace_mvp" transform="translate(-523.000000, -352.000000)">
            <g id="logo" transform="translate(522.000000, 351.000000)">
                <g id="logoDark" transform="translate(41.059294, 23.869633) rotate(-270.000000) translate(-41.059294, -23.869633) translate(17.559294, -16.630367)">
                    <g id="right" transform="translate(0.402570, 0.000000)">
                        <g id="up" transform="translate(0.194114, 0.000000)" fill="url(#linearGradient-1)">
                            <path d="M0.992188067,33.3167072 L22.0536348,18.6138037 C22.3016818,18.4937147 22.617378,18.3736256 22.8428753,18.3736256 L22.8428753,0.19214249 C22.5046293,0.168124679 21.9859856,0.408302792 21.9408861,0.408302792 L0.992188067,15.1352241 C0.56374322,15.2793309 0.0901989152,15.7116515 0.0901989152,16.3361146 L0.0901989152,32.3559948 C0.0901989152,32.8843866 0.496094034,33.3167072 0.992188067,33.3167072 Z" id="Shape"></path>
                        </g>
                        <g id="down" transform="translate(34.249641, 17.000000) scale(-1, 1) translate(-34.249641, -17.000000) translate(22.749641, -0.000000)" fill="url(#linearGradient-2)">
                            <path d="M0.901989152,33.3194932 L21.9634359,18.6165897 C22.2114829,18.4965007 22.5271791,18.3764116 22.7526764,18.3764116 L22.7526764,0.194928492 C22.4144304,0.170910681 21.8957867,0.411088793 21.8506872,0.411088793 L0.901989152,15.1380101 C0.473544305,15.2821169 -5.32907052e-15,15.7144376 -5.32907052e-15,16.3389006 L-5.32907052e-15,32.3587808 C-5.32907052e-15,32.8871726 0.405895118,33.3194932 0.901989152,33.3194932 Z" id="Shape"></path>
                        </g>
                    </g>
                    <g id="back" transform="translate(0.596684, 14.991117)" fill="url(#linearGradient-3)" opacity="0.699999988">
                        <path d="M45.0543581,49.5247269 L0.969638338,18.9020175 C0.473544305,18.6378216 0.0676491864,18.2295188 0.0676491864,17.7011269 L0.0676491864,1.51312211 C0.0676491864,0.74455215 0.428444847,0.432320603 0.94708861,0.168124679 L44.6935625,31.1270834 C45.1220073,31.2711903 45.5955516,31.7035109 45.5955516,32.327974 L45.5730019,48.5159788 C45.5053527,49.0443706 45.3475046,49.2845488 45.0543581,49.5247269 Z" id="Shape"></path>
                    </g>
                    <g id="left" transform="translate(23.584977, 63.181461) rotate(-180.000000) translate(-23.584977, -63.181461) translate(0.584977, 46.181461)">
                        <g id="pink" transform="translate(0.194114, -0.000000)" fill="url(#linearGradient-4)">
                            <path d="M0.992188067,33.3167072 L22.0536348,18.6138037 C22.3016818,18.4937147 22.617378,18.3736256 22.8428753,18.3736256 L22.8428753,0.19214249 C22.5046293,0.168124679 21.9859856,0.408302792 21.9408861,0.408302792 L0.992188067,15.1352241 C0.56374322,15.2793309 0.0901989152,15.7116515 0.0901989152,16.3361146 L0.0901989152,32.3559948 C0.0901989152,32.8843866 0.496094034,33.3167072 0.992188067,33.3167072 Z" id="Shape"></path>
                        </g>
                        <g id="yellow" transform="translate(34.249641, 17.000000) scale(-1, 1) translate(-34.249641, -17.000000) translate(22.749641, -0.000000)" fill="url(#linearGradient-5)">
                            <path d="M0.901989152,33.3194932 L21.9634359,18.6165897 C22.2114829,18.4965007 22.5271791,18.3764116 22.7526764,18.3764116 L22.7526764,0.194928492 C22.4144304,0.170910681 21.8957867,0.411088793 21.8506872,0.411088793 L0.901989152,15.1380101 C0.473544305,15.2821169 1.1812773e-12,15.7144376 1.1812773e-12,16.3389006 L1.1812773e-12,32.3587808 C1.1812773e-12,32.8871726 0.405895118,33.3194932 0.901989152,33.3194932 Z" id="Shape"></path>
                        </g>
                    </g>
                </g>
                <path d="M115.748676,16.5351281 C117.457331,13.082221 120.198258,11.3557933 123.971538,11.3557933 C127.175266,11.3557933 129.586925,12.4058885 131.206588,14.5061103 C132.82625,16.6063322 133.636069,19.382855 133.636069,22.8357621 L133.636069,38 L127.335435,38 L127.335435,22.8357621 C127.335435,20.9135252 126.872682,19.46297 125.94716,18.484053 C125.021639,17.505136 123.722368,17.0156849 122.04931,17.0156849 C120.376252,17.0156849 118.943495,17.7632103 117.750996,19.2582835 C116.558497,20.7533566 115.92666,22.9959328 115.855467,25.9860791 L115.855467,38 L109.554832,38 L109.554832,12.0499309 L115.054538,12.0499309 L115.748676,16.5351281 Z M151.363277,22.8357621 C153.427902,22.8357621 155.812864,23.1739284 158.518234,23.850271 L158.518234,21.2873012 C158.518234,19.4718552 158.153371,18.1280893 157.423633,17.2559633 C156.693895,16.3838373 155.501414,15.9477808 153.846154,15.9477808 C152.190894,15.9477808 150.918321,16.277048 150.028397,16.9355921 C149.138472,17.5941362 148.693517,18.528543 148.693517,19.7388403 L141.805536,19.7388403 C141.805536,16.7842909 142.846732,14.6485041 144.929155,13.3314158 C147.011578,12.0143276 149.921588,11.3557933 153.659271,11.3557933 C158.998818,11.3557933 162.451673,13.2246067 164.01794,16.9622897 C164.551895,18.243781 164.818868,19.75663 164.818868,21.500882 L164.818868,38 L159.319162,38 L158.838606,34.5293118 C157.165548,37.3414732 154.602603,38.7475329 151.149696,38.7475329 C147.80358,38.7475329 145.205039,37.9288146 143.353997,36.2913535 C141.645341,34.7250863 140.791027,32.7405844 140.791027,30.3377883 C140.791027,27.9349921 141.734333,26.0839768 143.620973,24.7846871 C145.507612,23.4853973 148.088355,22.8357621 151.363277,22.8357621 Z M158.518234,27.8549113 C156.418013,27.2853596 154.460208,27.000588 152.644762,27.000588 C149.227452,27.000588 147.518822,28.1396743 147.518822,30.4178811 C147.518822,31.3789995 147.910383,32.2066169 148.693517,32.900758 C149.47665,33.5948992 150.731425,33.9419645 152.457879,33.9419645 C154.184332,33.9419645 155.60819,33.3635223 156.729495,32.2066204 C157.8508,31.0497185 158.44704,29.5991633 158.518234,27.8549113 Z M197.069572,16.9622897 C198.74263,13.2246067 201.679336,11.3557933 205.87978,11.3557933 C208.976717,11.3557933 211.379478,12.4058885 213.088133,14.5061103 C214.725594,16.4995412 215.544312,19.2760641 215.544312,22.8357621 L215.544312,38 L209.190283,38 L209.190283,22.8357621 C209.190283,20.9135252 208.727529,19.46297 207.802008,18.484053 C206.876486,17.505136 205.577216,17.0156849 203.904158,17.0156849 C202.2311,17.0156849 200.860636,17.7454121 199.792727,19.2048883 C198.724818,20.6643645 198.155274,22.8713441 198.08408,25.8258935 L198.08408,38 L191.783446,38 L191.783446,22.8357621 C191.783446,20.9135252 191.320693,19.46297 190.395171,18.484053 C189.46965,17.505136 188.170379,17.0156849 186.497321,17.0156849 C184.824263,17.0156849 183.391506,17.7632103 182.199007,19.2582835 C181.006508,20.7533566 180.374672,22.9959328 180.303478,25.9860791 L180.303478,38 L174.002843,38 L174.002843,12.0499309 L179.502549,12.0499309 L180.196687,16.5351281 C181.905342,13.082221 184.646269,11.3557933 188.419549,11.3557933 C190.590964,11.3557933 192.397484,11.8541435 193.839162,12.850859 C195.280839,13.8475745 196.357632,15.2180376 197.069572,16.9622897 Z M244.778186,19.0980978 C245.223148,20.593171 245.445626,21.9636342 245.445626,23.2095285 C245.445626,24.4554229 245.374433,25.5767109 245.232045,26.5734264 L228.465951,26.5734264 C228.537145,28.6736482 229.053294,30.3822777 230.014412,31.6993659 C230.975531,33.0164542 232.434985,33.6749885 234.392819,33.6749885 C236.991399,33.6749885 238.539844,32.5359022 239.038202,30.2576954 L245.392231,30.2576954 C244.965067,32.856275 243.772586,34.9030707 241.814752,36.3981439 C239.785724,37.964411 237.311771,38.7475329 234.392819,38.7475329 C230.975509,38.7475329 228.109995,37.5016572 225.796191,35.0098686 C223.411193,32.411289 222.218713,29.0830213 222.218713,25.0249655 C222.218713,20.8601188 223.411193,17.5140528 225.796191,14.9866672 C228.074398,12.5660725 230.939912,11.3557933 234.392819,11.3557933 C237.988114,11.3557933 240.782435,12.6194671 242.775866,15.1468528 C243.665791,16.2859561 244.333224,17.6030247 244.778186,19.0980978 Z M234.446214,16.3749425 C232.666365,16.3749425 231.278104,16.9533847 230.281388,18.1102866 C229.284673,19.2671884 228.697331,20.7533401 228.519347,22.5687861 L239.572154,22.5687861 C239.572154,19.7566246 238.682243,17.870013 236.902394,16.9088945 C236.226051,16.5529247 235.407333,16.3749425 234.446214,16.3749425 Z M256.498433,30.0975098 C256.569627,32.5537015 258.367248,33.7817789 261.891349,33.7817789 C263.244034,33.7817789 264.356423,33.4881082 265.228549,32.900758 C266.100675,32.3134079 266.536732,31.6281763 266.536732,30.8450427 C266.536732,30.0619091 266.269758,29.4567695 265.735804,29.0296058 C265.201849,28.602442 264.365332,28.2108811 263.226229,27.8549113 L257.566337,25.8258935 C253.365894,24.3664173 251.265703,21.9814554 251.265703,18.6709362 C251.265703,16.4639234 252.253505,14.6930002 254.229137,13.3581134 C256.20477,12.0232267 258.856705,11.3557933 262.185023,11.3557933 C265.51334,11.3557933 268.076284,12.0855204 269.873932,13.5449967 C271.671579,15.0044729 272.605986,16.8376899 272.67718,19.0447026 L266.750313,19.0447026 C266.679119,18.1903751 266.269759,17.5140426 265.522223,17.0156849 C264.774686,16.5173272 263.706793,16.268152 262.318511,16.268152 C260.930228,16.268152 259.853436,16.5440245 259.088101,17.0957777 C258.322766,17.6475309 257.940104,18.2793678 257.940104,18.9913074 C257.940104,20.2372018 258.990199,21.1627094 261.090421,21.767858 L267.230869,24.0638518 C269.259897,24.7401944 270.817242,25.6034083 271.90295,26.6535192 C272.988658,27.7036301 273.531503,29.0651942 273.531503,30.7382523 C273.531503,32.8740711 272.517005,34.7250863 270.487977,36.2913535 C268.387755,37.9288146 265.611232,38.7475329 262.158325,38.7475329 C258.705418,38.7475329 255.928895,37.9911084 253.828673,36.4782367 C251.728451,34.965365 250.660558,32.8384773 250.624961,30.0975098 L256.498433,30.0975098 Z M286.880304,15.5740144 C288.517765,12.7618529 291.009517,11.3557933 294.355633,11.3557933 C297.559361,11.3557933 300.300288,12.5660725 302.578494,14.9866672 C304.999089,17.5496498 306.209368,20.8957157 306.209368,25.0249655 C306.209368,29.1898122 304.981291,32.5536764 302.525099,35.116659 C300.246892,37.5372537 297.523764,38.7475329 294.355633,38.7475329 C291.187502,38.7475329 288.873733,37.804227 287.414256,35.9175871 L287.414256,50.6546633 L281.113622,50.6546633 L281.113622,12.0499309 L286.292957,12.0499309 L286.880304,15.5740144 Z M293.234334,33.034246 C293.98187,33.034246 294.756093,32.874062 295.557025,32.5536892 C296.357957,32.2333164 297.078785,31.7349661 297.719531,31.0586235 C299.14341,29.5635503 299.855339,27.5612502 299.855339,25.0516631 C299.855339,22.5420759 299.2413,20.5753723 298.013204,19.1514931 C296.785109,17.7276138 295.290058,17.0156849 293.528007,17.0156849 C291.765957,17.0156849 290.324301,17.5229343 289.202996,18.5374482 C288.081691,19.5519622 287.48545,21.0025174 287.414256,22.8891573 L287.414256,27.5345401 C287.414256,29.2075981 288.001598,30.5602631 289.176298,31.5925755 C290.279805,32.553694 291.632469,33.034246 293.234334,33.034246 Z M322.227929,22.8357621 C324.292554,22.8357621 326.677516,23.1739284 329.382887,23.850271 L329.382887,21.2873012 C329.382887,19.4718552 329.018023,18.1280893 328.288285,17.2559633 C327.558547,16.3838373 326.366066,15.9477808 324.710806,15.9477808 C323.055547,15.9477808 321.782974,16.277048 320.893049,16.9355921 C320.003125,17.5941362 319.558169,18.528543 319.558169,19.7388403 L312.670188,19.7388403 C312.670188,16.7842909 313.711384,14.6485041 315.793807,13.3314158 C317.876231,12.0143276 320.78624,11.3557933 324.523923,11.3557933 C329.86347,11.3557933 333.316325,13.2246067 334.882593,16.9622897 C335.416547,18.243781 335.683521,19.75663 335.683521,21.500882 L335.683521,38 L330.183815,38 L329.703258,34.5293118 C328.0302,37.3414732 325.467256,38.7475329 322.014348,38.7475329 C318.668232,38.7475329 316.069692,37.9288146 314.218649,36.2913535 C312.509994,34.7250863 311.655679,32.7405844 311.655679,30.3377883 C311.655679,27.9349921 312.598985,26.0839768 314.485625,24.7846871 C316.372265,23.4853973 318.953007,22.8357621 322.227929,22.8357621 Z M329.382887,27.8549113 C327.282665,27.2853596 325.32486,27.000588 323.509414,27.000588 C320.092104,27.000588 318.383475,28.1396743 318.383475,30.4178811 C318.383475,31.3789995 318.775036,32.2066169 319.558169,32.900758 C320.341303,33.5948992 321.596077,33.9419645 323.322531,33.9419645 C325.048985,33.9419645 326.472842,33.3635223 327.594147,32.2066204 C328.715452,31.0497185 329.311693,29.5991633 329.382887,27.8549113 Z M354.745608,11.3557933 C356.38307,11.3557933 357.851423,11.6316658 359.150713,12.183419 C360.450003,12.7351722 361.544593,13.4560002 362.434518,14.3459247 C364.214367,16.0545798 365.264462,18.2081648 365.584835,20.8067444 L359.230806,20.96693 C358.94603,19.8278266 358.420982,18.8845208 357.655647,18.1369842 C356.890312,17.3894476 356.0093,17.0156849 355.012584,17.0156849 C354.015869,17.0156849 353.161554,17.1669698 352.449615,17.4695441 C351.737675,17.7721185 351.114737,18.2437714 350.580783,18.884517 C349.370485,20.3795902 348.765346,22.4441841 348.765346,25.0783607 C348.765346,27.7125372 349.334889,29.6970391 350.473992,31.0319259 C351.613095,32.3668127 352.992458,33.034246 354.61212,33.034246 C356.231783,33.034246 357.406466,32.6515842 358.136204,31.8862492 C358.865942,31.1209141 359.230806,30.079718 359.230806,28.7626297 L365.584835,28.7626297 C365.584835,31.6103882 364.641529,33.9775519 362.754889,35.8641918 C360.832652,37.7864288 358.14512,38.7475329 354.692213,38.7475329 C351.274903,38.7475329 348.409389,37.5016572 346.095585,35.0098686 C343.639394,32.340095 342.411316,29.0118273 342.411316,25.0249655 C342.411316,20.8245218 343.639394,17.4606576 346.095585,14.933272 C348.409389,12.5482743 351.292701,11.3557933 354.745608,11.3557933 Z M393.270248,19.0980978 C393.71521,20.593171 393.937688,21.9636342 393.937688,23.2095285 C393.937688,24.4554229 393.866495,25.5767109 393.724107,26.5734264 L376.958013,26.5734264 C377.029207,28.6736482 377.545356,30.3822777 378.506474,31.6993659 C379.467593,33.0164542 380.927047,33.6749885 382.884881,33.6749885 C385.48346,33.6749885 387.031906,32.5359022 387.530264,30.2576954 L393.884293,30.2576954 C393.457129,32.856275 392.264648,34.9030707 390.306814,36.3981439 C388.277786,37.964411 385.803833,38.7475329 382.884881,38.7475329 C379.467571,38.7475329 376.602057,37.5016572 374.288253,35.0098686 C371.903255,32.411289 370.710774,29.0830213 370.710774,25.0249655 C370.710774,20.8601188 371.903255,17.5140528 374.288253,14.9866672 C376.56646,12.5660725 379.431974,11.3557933 382.884881,11.3557933 C386.480176,11.3557933 389.274497,12.6194671 391.267928,15.1468528 C392.157852,16.2859561 392.825286,17.6030247 393.270248,19.0980978 Z M382.938276,16.3749425 C381.158427,16.3749425 379.770166,16.9533847 378.77345,18.1102866 C377.776735,19.2671884 377.189393,20.7533401 377.011408,22.5687861 L388.064216,22.5687861 C388.064216,19.7566246 387.174304,17.870013 385.394455,16.9088945 C384.718113,16.5529247 383.899395,16.3749425 382.938276,16.3749425 Z" id="namespace" fill="#FFFFFF"></path>
            </g>
        </g>
    </g>
</svg>